<mxfile host="app.diagrams.net" agent="Mozilla/5.0 (Windows NT 10.0; Win64; x64) AppleWebKit/537.36 (KHTML, like Gecko) Chrome/129.0.0.0 Safari/537.36" version="24.7.17">
  <diagram name="Page-1" id="Aq_-bAxhL1fuz1FVvOLq">
    <mxGraphModel dx="957" dy="450" grid="1" gridSize="10" guides="1" tooltips="1" connect="1" arrows="1" fold="1" page="1" pageScale="1" pageWidth="827" pageHeight="1169" math="0" shadow="0">
      <root>
        <mxCell id="0" />
        <mxCell id="1" parent="0" />
        <mxCell id="33rQxCuGwNwVe_eZY0Je-1" value="BetterMehta&lt;div&gt;&lt;br&gt;&lt;div&gt;( A better Version of Printering Shops around campus :Mr. Mehta)&lt;/div&gt;&lt;/div&gt;" style="ellipse;whiteSpace=wrap;html=1;aspect=fixed;" vertex="1" parent="1">
          <mxGeometry x="330" y="280" width="190" height="190" as="geometry" />
        </mxCell>
        <mxCell id="33rQxCuGwNwVe_eZY0Je-2" value="Student" style="rounded=1;whiteSpace=wrap;html=1;" vertex="1" parent="1">
          <mxGeometry x="80" y="330" width="140" height="90" as="geometry" />
        </mxCell>
        <mxCell id="33rQxCuGwNwVe_eZY0Je-3" value="Vendor" style="rounded=1;whiteSpace=wrap;html=1;" vertex="1" parent="1">
          <mxGeometry x="630" y="330" width="140" height="90" as="geometry" />
        </mxCell>
        <mxCell id="33rQxCuGwNwVe_eZY0Je-4" value="" style="endArrow=classic;html=1;rounded=0;fontSize=12;startSize=8;endSize=8;curved=1;exitX=1.007;exitY=0.189;exitDx=0;exitDy=0;exitPerimeter=0;entryX=0;entryY=0.358;entryDx=0;entryDy=0;entryPerimeter=0;" edge="1" parent="1" source="33rQxCuGwNwVe_eZY0Je-2" target="33rQxCuGwNwVe_eZY0Je-1">
          <mxGeometry width="50" height="50" relative="1" as="geometry">
            <mxPoint x="220" y="350" as="sourcePoint" />
            <mxPoint x="270" y="300" as="targetPoint" />
          </mxGeometry>
        </mxCell>
        <mxCell id="33rQxCuGwNwVe_eZY0Je-5" value="" style="endArrow=classic;html=1;rounded=0;fontSize=12;startSize=8;endSize=8;curved=1;exitX=1.007;exitY=0.189;exitDx=0;exitDy=0;exitPerimeter=0;entryX=0;entryY=0.358;entryDx=0;entryDy=0;entryPerimeter=0;" edge="1" parent="1">
          <mxGeometry width="50" height="50" relative="1" as="geometry">
            <mxPoint x="221" y="400" as="sourcePoint" />
            <mxPoint x="330" y="401" as="targetPoint" />
          </mxGeometry>
        </mxCell>
        <mxCell id="33rQxCuGwNwVe_eZY0Je-6" value="Documents and Media" style="text;strokeColor=none;fillColor=none;html=1;fontSize=6;fontStyle=1;verticalAlign=middle;align=center;" vertex="1" parent="1">
          <mxGeometry x="240" y="330" width="70" height="20" as="geometry" />
        </mxCell>
        <mxCell id="33rQxCuGwNwVe_eZY0Je-7" value="Payments" style="text;strokeColor=none;fillColor=none;html=1;fontSize=6;fontStyle=1;verticalAlign=middle;align=center;" vertex="1" parent="1">
          <mxGeometry x="237" y="384" width="70" height="20" as="geometry" />
        </mxCell>
        <mxCell id="33rQxCuGwNwVe_eZY0Je-8" value="" style="endArrow=classic;html=1;rounded=0;fontSize=12;startSize=8;endSize=8;curved=1;" edge="1" parent="1" target="33rQxCuGwNwVe_eZY0Je-2">
          <mxGeometry width="50" height="50" relative="1" as="geometry">
            <mxPoint x="330" y="375" as="sourcePoint" />
            <mxPoint x="340" y="358" as="targetPoint" />
          </mxGeometry>
        </mxCell>
        <mxCell id="33rQxCuGwNwVe_eZY0Je-9" value="Printed Documents" style="text;strokeColor=none;fillColor=none;html=1;fontSize=6;fontStyle=1;verticalAlign=middle;align=center;" vertex="1" parent="1">
          <mxGeometry x="240" y="360" width="70" height="20" as="geometry" />
        </mxCell>
        <mxCell id="33rQxCuGwNwVe_eZY0Je-16" value="Queue of Requests" style="text;strokeColor=none;fillColor=none;html=1;fontSize=6;fontStyle=1;verticalAlign=middle;align=center;" vertex="1" parent="1">
          <mxGeometry x="540" y="337" width="70" height="20" as="geometry" />
        </mxCell>
        <mxCell id="33rQxCuGwNwVe_eZY0Je-17" value="" style="endArrow=classic;html=1;rounded=0;fontSize=12;startSize=8;endSize=8;curved=1;exitX=1;exitY=0.386;exitDx=0;exitDy=0;exitPerimeter=0;entryX=0;entryY=0.25;entryDx=0;entryDy=0;" edge="1" parent="1" source="33rQxCuGwNwVe_eZY0Je-1" target="33rQxCuGwNwVe_eZY0Je-3">
          <mxGeometry width="50" height="50" relative="1" as="geometry">
            <mxPoint x="520" y="339.5" as="sourcePoint" />
            <mxPoint x="629" y="340.5" as="targetPoint" />
          </mxGeometry>
        </mxCell>
        <mxCell id="33rQxCuGwNwVe_eZY0Je-19" value="" style="endArrow=classic;html=1;rounded=0;fontSize=12;startSize=8;endSize=8;curved=1;" edge="1" parent="1">
          <mxGeometry width="50" height="50" relative="1" as="geometry">
            <mxPoint x="630" y="378.8" as="sourcePoint" />
            <mxPoint x="520" y="378.8" as="targetPoint" />
          </mxGeometry>
        </mxCell>
        <mxCell id="33rQxCuGwNwVe_eZY0Je-20" value="Approved Documents" style="text;strokeColor=none;fillColor=none;html=1;fontSize=6;fontStyle=1;verticalAlign=middle;align=center;" vertex="1" parent="1">
          <mxGeometry x="540" y="364" width="70" height="20" as="geometry" />
        </mxCell>
      </root>
    </mxGraphModel>
  </diagram>
</mxfile>
